<svg xmlns="http://www.w3.org/2000/svg" viewBox="0 0 39 39"><title>Loading</title><path d="M25.3156 25.3365L29.2448 29.2656C23.8212 34.6892 15.0267 34.6878 9.60172 29.2642C6.48089 26.1448 5.16561 21.9087 5.63784 17.8406L0.0308906 18.3503C-0.26772 23.6837 1.59756 29.117 5.67256 33.1934C13.2656 40.7865 25.5795 40.7878 33.1712 33.1934L37.0989 37.1212L38.2781 24.1573L25.3156 25.3365ZM33.1726 5.69479C25.5781 -1.89826 13.2684 -1.89826 5.67395 5.69479L1.74617 1.76702L0.567001 14.7309L13.5309 13.5517L9.60172 9.62257C15.0267 4.19896 23.8184 4.19896 29.2434 9.62257C32.3656 12.7434 33.6795 16.9795 33.2101 21.0476L38.8156 20.5392C39.1156 15.2045 37.2489 9.77118 33.1726 5.69479Z" fill="#ffffff"/></svg>	