<svg xmlns="http://www.w3.org/2000/svg" viewBox="0 0 36 36"><path d="M32,10H4a4,4,0,0,0-4,4v1l14.53,14.5a4.88,4.88,0,0,0,6.88,0L36,15V14A4,4,0,0,0,32,10Z" style="fill:#c8ac86" /><path d="M32.42,9.59l-9-9A2,2,0,0,0,20,2a2,2,0,0,0,.59,1.41L16.73,7.27l9,9,3.86-3.86A2,2,0,0,0,31,13a2,2,0,0,0,1.42-3.41Z" style="fill:#e1e8ed" /><path d="M22,0H7A4,4,0,0,0,3,4V32a4,4,0,0,0,4,4H29a4,4,0,0,0,4-4V11H24a2.15,2.15,0,0,1-2-2Z" style="fill:#ccd6dd" /><path d="M22,0H20V9a4,4,0,0,0,4,4h9V11H24a2.15,2.15,0,0,1-2-2Z" style="fill:#99aab5" /><path d="M29,16a1,1,0,0,1-1,1H8a1,1,0,0,1,0-2H28A1,1,0,0,1,29,16Z" style="fill:#99aab5" /><path d="M29,20a1,1,0,0,1-1,1H8a1,1,0,0,1,0-2H28A1,1,0,0,1,29,20Z" style="fill:#99aab5" /><path d="M29,24a1,1,0,0,1-1,1H8a1,1,0,0,1,0-2H28A1,1,0,0,1,29,24Z" style="fill:#99aab5" /><path d="M29,28a1,1,0,0,1-1,1H8a1,1,0,0,1,0-2H28A1,1,0,0,1,29,28Z" style="fill:#99aab5" /><path d="M14.53,29.53,0,15V32a4,4,0,0,0,4,4H32a4,4,0,0,0,4-4V15L21.41,29.53A4.88,4.88,0,0,1,14.53,29.53Z" style="fill:#dbbe96" /><path d="M24.77,26.18l1.42-1.41L35.36,34a.47.47,0,0,1,.06.09A4,4,0,0,1,34,35.42s-.07,0-.09-.06ZM.64,34A.47.47,0,0,0,.58,34,4,4,0,0,0,2,35.42l.09-.06,9.15-9.15L9.79,24.8Z" style="fill:#d2b68f" /><path d="M17,11.9A1.12,1.12,0,0,1,15.89,13H8.11A1.12,1.12,0,0,1,7,11.9V4.12A1.11,1.11,0,0,1,8.11,3h7.78A1.11,1.11,0,0,1,17,4.12Z" style="fill:#3b88c3" /><path d="M10.92,10.51a.62.62,0,0,1-.72.59.63.63,0,0,1-.56-.75L10.7,6.1H9.17a.57.57,0,0,1-.61-.62.6.6,0,0,1,.61-.55h2.17c.41,0,.75.22.66.69Z" style="fill:#fff" /><path d="M14.34,8.65v2.06a.55.55,0,0,1-.59.58.57.57,0,0,1-.58-.58V5.32a.59.59,0,0,1,.58-.59.54.54,0,0,1,.59.59V7.37h.44a.61.61,0,0,1,.67.64.62.62,0,0,1-.67.64Z" style="fill:#fff" /></svg>