<svg width="40" height="40" viewBox="0 0 40 40" fill="none" xmlns="http://www.w3.org/2000/svg"><title>Mochive</title><path fill-rule="evenodd" clip-rule="evenodd" d="M0 13.3333V30C0 35.6667 4.33333 40 10 40H20C24 39.6667 27.6667 37 29 33.3333H33.3333C37 33.3333 40 30.3333 40 26.6667V23.3333C40 19.6667 37 16.6667 33.3333 16.6667H30V13.3333H0ZM3.33333 16.6667V30C3.33333 33.6667 6.33333 36.6667 10 36.6667H20C23.6667 36.6667 26.6667 33.6667 26.6667 30V16.6667H3.33333ZM30 20V30H33.3333C35.3333 30 36.6667 28.6667 36.6667 26.6667V23.3333C36.6667 21.3333 35.3333 20 33.3333 20H30Z" fill="black"/><path d="M23.3333 16.6667V30C23.3333 33.6667 20.3333 36.6667 16.6667 36.6667H20C23.6667 36.6667 26.6667 33.6667 26.6667 30V16.6667H23.3333Z" fill="#808080"/><path d="M13.3333 0V3.33333C11.3333 3.33333 10 4.66667 10 6.66667V10H13.3333V6.66667C15.3333 6.66667 16.6667 5.33333 16.6667 3.33333V0H13.3333ZM20 0V3.33333C18 3.33333 16.6667 4.66667 16.6667 6.66667V10H20V6.66667C22 6.66667 23.3333 5.33333 23.3333 3.33333V0H20Z" fill="#DDC57F"/><path d="M23.3333 30V16.6667H3.33333V30C3.33333 33.6667 6.33333 36.6667 10 36.6667H16.6667C20.3333 36.6667 23.3333 33.6667 23.3333 30Z" fill="#FFFDF5"/></svg>