<svg xmlns="http://www.w3.org/2000/svg" viewBox="0 0 36 36"><path d="M32,10H4a4,4,0,0,0-4,4v1l14.53,14.5a4.88,4.88,0,0,0,6.88,0L36,15V14A4,4,0,0,0,32,10Z" style="fill:#86b1ce" /><path d="M32.42,9.59l-9-9A2,2,0,0,0,20,2a2,2,0,0,0,.59,1.41L16.73,7.27l9,9,3.86-3.86A2,2,0,0,0,31,13a2,2,0,0,0,1.42-3.41Z" style="fill:#e1e8ed" /><path d="M22,0H7A4,4,0,0,0,3,4V32a4,4,0,0,0,4,4H29a4,4,0,0,0,4-4V11H24a2.15,2.15,0,0,1-2-2Z" style="fill:#ccd6dd" /><path d="M22,0H20V9a4,4,0,0,0,4,4h9V11H24a2.15,2.15,0,0,1-2-2Z" style="fill:#99aab5" /><path d="M29,16a1,1,0,0,1-1,1H8a1,1,0,0,1,0-2H28A1,1,0,0,1,29,16Z" style="fill:#99aab5" /><path d="M29,20a1,1,0,0,1-1,1H8a1,1,0,0,1,0-2H28A1,1,0,0,1,29,20Z" style="fill:#99aab5" /><path d="M29,24a1,1,0,0,1-1,1H8a1,1,0,0,1,0-2H28A1,1,0,0,1,29,24Z" style="fill:#99aab5" /><path d="M29,28a1,1,0,0,1-1,1H8a1,1,0,0,1,0-2H28A1,1,0,0,1,29,28Z" style="fill:#99aab5" /><circle cx="12" cy="8" r="5" style="fill:#3b94d9" /><path d="M14.1,6.14a2.68,2.68,0,0,0-1.61.75c.17.19.28.34.32.38l.2.25A2,2,0,0,1,14.1,7a1.05,1.05,0,1,1,0,2.1c-.65,0-1.52-1-1.78-1.29-.12-.17-1.25-1.62-2.42-1.62a1.86,1.86,0,0,0,0,3.72,2.56,2.56,0,0,0,1.57-.72,5.3,5.3,0,0,1-.35-.41L11,8.52a1.85,1.85,0,0,1-1,.53A1.05,1.05,0,0,1,9.9,7c.65,0,1.52,1,1.78,1.3.12.16,1.25,1.61,2.42,1.61a1.86,1.86,0,1,0,0-3.72Z" style="fill:#fff" /><path d="M14.53,29.53,0,15V32a4,4,0,0,0,4,4H32a4,4,0,0,0,4-4V15L21.41,29.53A4.88,4.88,0,0,1,14.53,29.53Z" style="fill:#99c2de" /><path d="M24.77,26.18l1.42-1.41L35.36,34a.47.47,0,0,1,.06.09A4,4,0,0,1,34,35.42s-.07,0-.09-.06ZM.64,34A.47.47,0,0,0,.58,34,4,4,0,0,0,2,35.42l.09-.06,9.15-9.15L9.79,24.8Z" style="fill:#91b6cf" /></svg>