<svg xmlns="http://www.w3.org/2000/svg" viewBox="0 0 64.97 14.18"><title>Mochive</title><path d="M0,4.73v5.9a3.49,3.49,0,0,0,3.54,3.55H7.09a3.76,3.76,0,0,0,3.19-2.37h1.53a2.37,2.37,0,0,0,2.37-2.36V8.27a2.37,2.37,0,0,0-2.37-2.36H10.63V4.73ZM1.18,5.91v4.72A2.36,2.36,0,0,0,3.54,13H7.09a2.36,2.36,0,0,0,2.36-2.36V5.91Zm9.45,1.18v3.54h1.18A1.11,1.11,0,0,0,13,9.45V8.27a1.11,1.11,0,0,0-1.18-1.18Z" style="fill:#2B1600;fill-rule:evenodd"/><path d="M8.27,5.91v4.72A2.36,2.36,0,0,1,5.91,13H7.09a2.36,2.36,0,0,0,2.36-2.36V5.91Z" style="fill:#808080"/><path d="M4.73,0V1.18A1.12,1.12,0,0,0,3.54,2.36V3.54H4.73V2.36A1.12,1.12,0,0,0,5.91,1.18V0ZM7.09,0V1.18A1.11,1.11,0,0,0,5.91,2.36V3.54H7.09V2.36A1.11,1.11,0,0,0,8.27,1.18V0Z" style="fill:#DDC57F"/><path d="M8.27,10.63V5.91H1.18v4.72A2.36,2.36,0,0,0,3.54,13H5.91A2.36,2.36,0,0,0,8.27,10.63Z" style="fill:#FFFDF5"/><path d="M17.94,4.86l2.47,6h.1l2.47-6h2.29v8.91H23.48V7.94H23.4l-2.32,5.79H19.85L17.52,7.91h-.07v5.86h-1.8V4.86Z" style="fill:#2B1600"/><path d="M26.46,10.45a3.28,3.28,0,1,1,6.55,0,3.28,3.28,0,1,1-6.55,0Zm3.28,2c.93,0,1.42-.88,1.42-2s-.49-2.06-1.42-2.06-1.44.88-1.44,2.06S28.79,12.48,29.74,12.49Z" style="fill:#2B1600"/><path d="M33.88,10.45A3.16,3.16,0,0,1,37.15,7a2.69,2.69,0,0,1,3,2.53H38.41a1.21,1.21,0,0,0-1.23-1.11c-.87,0-1.45.73-1.45,2s.56,2,1.45,2a1.21,1.21,0,0,0,1.23-1.11h1.71a2.69,2.69,0,0,1-3,2.56A3.16,3.16,0,0,1,33.88,10.45Z" style="fill:#2B1600"/><path d="M43.07,13.77H41.25V4.86H43v3.4h.07a2,2,0,0,1,2-1.26,2.24,2.24,0,0,1,2.31,2.51v4.26H45.57V9.83a1.16,1.16,0,0,0-1.2-1.32,1.25,1.25,0,0,0-1.3,1.39Z" style="fill:#2B1600"/><path d="M49.7,4.36a1,1,0,0,1,1,.93,1,1,0,0,1-2,0A1,1,0,0,1,49.7,4.36Zm-.91,2.73h1.82v6.68H48.79Z" style="fill:#2B1600"/><path d="M55.87,13.77h-2L51.5,7.09h1.92l1.4,4.79h.07l1.4-4.79h1.93Z" style="fill:#2B1600"/><path d="M58.61,10.46A3.16,3.16,0,0,1,61.84,7C63.59,7,65,8.11,65,10.38v.52H60.41A1.49,1.49,0,0,0,62,12.54a1.3,1.3,0,0,0,1.24-.68h1.73c-.26,1.24-1.36,2-3,2A3.13,3.13,0,0,1,58.61,10.46Zm4.64-.7a1.33,1.33,0,0,0-1.38-1.39,1.43,1.43,0,0,0-1.46,1.39Z" style="fill:#2B1600"/></svg>