<svg xmlns="http://www.w3.org/2000/svg" viewBox="0 0 36 36"><path d="M32,10H4a4,4,0,0,0-4,4v1l14.53,14.5a4.88,4.88,0,0,0,6.88,0L36,15V14A4,4,0,0,0,32,10Z" style="fill:#8ac0b9" /><path d="M32.42,9.59l-9-9A2,2,0,0,0,20,2a2,2,0,0,0,.59,1.41L16.73,7.27l9,9,3.86-3.86A2,2,0,0,0,31,13a2,2,0,0,0,1.42-3.41Z" style="fill:#e1e8ed" /><path d="M22,0H7A4,4,0,0,0,3,4V32a4,4,0,0,0,4,4H29a4,4,0,0,0,4-4V11H24a2.15,2.15,0,0,1-2-2Z" style="fill:#ccd6dd" /><path d="M22,0H20V9a4,4,0,0,0,4,4h9V11H24a2.15,2.15,0,0,1-2-2Z" style="fill:#99aab5" /><path d="M29,16a1,1,0,0,1-1,1H8a1,1,0,0,1,0-2H28A1,1,0,0,1,29,16Z" style="fill:#99aab5" /><path d="M29,20a1,1,0,0,1-1,1H8a1,1,0,0,1,0-2H28A1,1,0,0,1,29,20Z" style="fill:#99aab5" /><path d="M29,24a1,1,0,0,1-1,1H8a1,1,0,0,1,0-2H28A1,1,0,0,1,29,24Z" style="fill:#99aab5" /><path d="M29,28a1,1,0,0,1-1,1H8a1,1,0,0,1,0-2H28A1,1,0,0,1,29,28Z" style="fill:#99aab5" /><path d="M14.53,29.53,0,15V32a4,4,0,0,0,4,4H32a4,4,0,0,0,4-4V15L21.41,29.53A4.88,4.88,0,0,1,14.53,29.53Z" style="fill:#a7dad4" /><path d="M24.77,26.18l1.42-1.41L35.36,34a.47.47,0,0,1,.06.09A4,4,0,0,1,34,35.42s-.07,0-.09-.06ZM.64,34A.47.47,0,0,0,.58,34,4,4,0,0,0,2,35.42l.09-.06,9.15-9.15L9.79,24.8Z" style="fill:#94ccc5" /><path d="M15.34,10.22a1.11,1.11,0,0,1-1.11,1.11H8.11A1.11,1.11,0,0,1,7,10.22V4.11A1.11,1.11,0,0,1,8.11,3h6.12a1.11,1.11,0,0,1,1.11,1.11Z" style="fill:#99aab5" /><path d="M14.78,10.22a.56.56,0,0,1-.55.56H8.11a.55.55,0,0,1-.55-.56V4.11a.55.55,0,0,1,.55-.56h6.12a.56.56,0,0,1,.55.56Z" style="fill:#f5f8fa" /><path d="M8.67,10.22a.27.27,0,0,1-.28-.28V6.61a.27.27,0,0,1,.28-.28A.28.28,0,0,1,9,6.61V9.94A.28.28,0,0,1,8.67,10.22Z" style="fill:#50a5e6" /><path d="M9.78,10.22a.28.28,0,0,1-.28-.28V5.22a.28.28,0,1,1,.56,0V9.94A.28.28,0,0,1,9.78,10.22Z" style="fill:#77b255" /><path d="M10.89,10.22a.28.28,0,0,1-.28-.28V8a.28.28,0,0,1,.56,0V9.94A.28.28,0,0,1,10.89,10.22Z" style="fill:#dd2f45" /><path d="M17,13v-.56a1.66,1.66,0,0,0-1.66-1.66H10.89a1.66,1.66,0,0,0-1.67,1.66V13Z" style="fill:#226798" /><path d="M11.63,13h1l-.89-2.22h-.55l-.28,1.66.83.28Zm3,0h-1l.89-2.22h.56l.28,1.66-.84.28Z" style="fill:#3a87c2" /><path d="M11.9,10.8a2.07,2.07,0,0,0,1.22.57,2,2,0,0,0,1.21-.57V9.75H11.9Z" style="fill:#ffdb5e" /><path d="M11.9,10.21a1.49,1.49,0,0,0,1.21.49,1.49,1.49,0,0,0,1.22-.49v-1H11.9v1Z" style="fill:#f8c954" /><path d="M11.29,7.42c0,.41-.2.73-.45.73s-.46-.32-.46-.73.21-.72.46-.72.45.32.45.72m4.56,0c0,.41-.21.73-.46.73s-.45-.32-.45-.73.2-.72.45-.72.46.32.46.72" style="fill:#ffdb5e" /><path d="M10.75,7.71A2.62,2.62,0,0,1,13.11,4.9a2.62,2.62,0,0,1,2.37,2.81,2.62,2.62,0,0,1-2.37,2.81,2.62,2.62,0,0,1-2.36-2.81" style="fill:#ffdb5e" /><path d="M13.11,4a2.4,2.4,0,0,1,2.55,2.13c0,1-.19,1.35-.39,1l-.39-.77s-1.18,0-1.57-.39c0,0,.59,1.16-.59,0,0,0,.2.78-1-.19A2.14,2.14,0,0,0,11,7.05c-.06.27-.4,0-.4-1A2.28,2.28,0,0,1,13.11,4" style="fill:#faaa35" /><path d="M13.11,9.61c-.76,0-1-.2-1-.24a.18.18,0,0,1,0-.25.18.18,0,0,1,.25,0,1.5,1.5,0,0,0,.79.14,1.38,1.38,0,0,0,.79-.14.18.18,0,1,1,.25.26s-.27.24-1,.24m.21-1.13h-.41a.2.2,0,0,1-.21-.2.21.21,0,0,1,.21-.21h.41a.21.21,0,0,1,.21.21.2.2,0,0,1-.21.2" style="fill:#c1694f" /><path d="M14.23,7.72A.28.28,0,0,1,14,7.44V7.16a.28.28,0,0,1,.55,0v.28a.28.28,0,0,1-.27.28M12,7.72a.29.29,0,0,1-.28-.28V7.16A.28.28,0,0,1,12,6.89a.27.27,0,0,1,.28.27v.28a.28.28,0,0,1-.28.28" style="fill:#662213" /><path d="M12.69,13h1l.56-1.11-1.11-.52L12,11.89,12.56,13Z" style="fill:#ccd6dc" /><path d="M13.12,12.43c.21,0,.35.29.44.57h.15c-.11-.35-.23-.68-.23-.68l.14-.25a3,3,0,0,0,.13-.44l-.61-.26h-.09l-.05,0c-.06,0,0,0,0,0l-.54.23a3,3,0,0,0,.13.44l.14.25s-.12.31-.22.68h.16C12.78,12.72,12.92,12.43,13.12,12.43Z" style="fill:#9f1d22" /><path d="M13.12,12.43c-.2,0-.34.29-.43.57h.87C13.47,12.72,13.33,12.43,13.12,12.43Zm0-.87c.1,0,.42.21.39.35-.13.5-.24.38-.39.38s-.26.13-.38-.36c0-.11.22-.36.38-.37" style="fill:#dd2f45" /><path d="M14.43,10.43c-.16.16-1.31.94-1.31.94a4.79,4.79,0,0,1,1.13,1,5.94,5.94,0,0,0,.44-1.59c0-.08-.19-.41-.26-.33m-2.62,0c.16.16,1.31.94,1.31.94a5,5,0,0,0-1.14,1,6.34,6.34,0,0,1-.44-1.59c0-.08.19-.41.27-.33" style="fill:#f4f7f9" /></svg>