<svg xmlns="http://www.w3.org/2000/svg" viewBox="0 0 36 36"><path d="M32,10H4a4,4,0,0,0-4,4v1l14.53,14.5a4.88,4.88,0,0,0,6.88,0L36,15V14A4,4,0,0,0,32,10Z" style="fill:#6486b8" /><path d="M32.42,9.59l-9-9A2,2,0,0,0,20,2a2,2,0,0,0,.59,1.41L16.73,7.27l9,9,3.86-3.86A2,2,0,0,0,31,13a2,2,0,0,0,1.42-3.41Z" style="fill:#e1e8ed" /><path d="M22,0H7A4,4,0,0,0,3,4V32a4,4,0,0,0,4,4H29a4,4,0,0,0,4-4V11H24a2.15,2.15,0,0,1-2-2Z" style="fill:#ccd6dd" /><path d="M22,0H20V9a4,4,0,0,0,4,4h9V11H24a2.15,2.15,0,0,1-2-2Z" style="fill:#99aab5" /><path d="M29,16a1,1,0,0,1-1,1H8a1,1,0,0,1,0-2H28A1,1,0,0,1,29,16Z" style="fill:#99aab5" /><path d="M29,20a1,1,0,0,1-1,1H8a1,1,0,0,1,0-2H28A1,1,0,0,1,29,20Z" style="fill:#99aab5" /><path d="M29,24a1,1,0,0,1-1,1H8a1,1,0,0,1,0-2H28A1,1,0,0,1,29,24Z" style="fill:#99aab5" /><path d="M29,28a1,1,0,0,1-1,1H8a1,1,0,0,1,0-2H28A1,1,0,0,1,29,28Z" style="fill:#99aab5" /><path d="M14.53,29.53,0,15V32a4,4,0,0,0,4,4H32a4,4,0,0,0,4-4V15L21.41,29.53A4.88,4.88,0,0,1,14.53,29.53Z" style="fill:#7a9bcd" /><path d="M24.77,26.18l1.42-1.41L35.36,34a.47.47,0,0,1,.06.09A4,4,0,0,1,34,35.42s-.07,0-.09-.06ZM.64,34A.47.47,0,0,0,.58,34,4,4,0,0,0,2,35.42l.09-.06,9.15-9.15L9.79,24.8Z" style="fill:#6c8ec0" /><path d="M11.34,12.42a.29.29,0,0,1-.57,0V10.05a.29.29,0,0,1,.57,0Z" style="fill:#67757f" /><circle cx="11.17" cy="7.11" r="3.93" style="fill:#b8e0f4" /><path d="M7.82,7.26a3.35,3.35,0,0,0,6.7,0Z" style="fill:#50a5e6" /><path d="M15.31,9.48a.57.57,0,0,1-.57.57H7.66a.57.57,0,1,1,0-1.13h7.08A.57.57,0,0,1,15.31,9.48Z" style="fill:#67757f" /><path d="M7.55,12.66a.29.29,0,0,1-.36.17A.27.27,0,0,1,7,12.47L8,9.84a.29.29,0,0,1,.36-.17.28.28,0,0,1,.17.36Zm7.3,0a.29.29,0,0,0,.36.17.28.28,0,0,0,.17-.36l-1-2.65a.29.29,0,0,0-.54.19Z" style="fill:#67757f" /><path d="M12.19,3.33S16,4.65,16.38,4.78c1.05.34.61,1.48-.11,1.3-1.44-.36-4.08-1.15-4.37-1.15S12.19,3.33,12.19,3.33Z" style="fill:#b8e0f4" /><path d="M15,9.2a.27.27,0,0,1-.28.28H7.66a.28.28,0,1,1,0-.56h7.08A.27.27,0,0,1,15,9.2Z" style="fill:#9aaab4" /><ellipse cx="11.17" cy="7.26" rx="3.35" ry="0.46" style="fill:#3b94d9" /><ellipse cx="16.45" cy="5.51" rx="0.38" ry="0.28" transform="translate(6.71 19.87) rotate(-74.36)" style="fill:#aab8c2" /></svg>