<svg xmlns="http://www.w3.org/2000/svg" viewBox="0 0 36 36"><path d="M32,10H4a4,4,0,0,0-4,4v1l14.53,14.5a4.88,4.88,0,0,0,6.88,0L36,15V14A4,4,0,0,0,32,10Z" style="fill:#91bf85" /><path d="M32.42,9.59l-9-9A2,2,0,0,0,20,2a2,2,0,0,0,.59,1.41L16.73,7.27l9,9,3.86-3.86A2,2,0,0,0,31,13a2,2,0,0,0,1.42-3.41Z" style="fill:#e1e8ed" /><path d="M22,0H7A4,4,0,0,0,3,4V32a4,4,0,0,0,4,4H29a4,4,0,0,0,4-4V11H24a2.15,2.15,0,0,1-2-2Z" style="fill:#ccd6dd" /><path d="M22,0H20V9a4,4,0,0,0,4,4h9V11H24a2.15,2.15,0,0,1-2-2Z" style="fill:#99aab5" /><path d="M29,16a1,1,0,0,1-1,1H8a1,1,0,0,1,0-2H28A1,1,0,0,1,29,16Z" style="fill:#99aab5" /><path d="M29,20a1,1,0,0,1-1,1H8a1,1,0,0,1,0-2H28A1,1,0,0,1,29,20Z" style="fill:#99aab5" /><path d="M29,24a1,1,0,0,1-1,1H8a1,1,0,0,1,0-2H28A1,1,0,0,1,29,24Z" style="fill:#99aab5" /><path d="M29,28a1,1,0,0,1-1,1H8a1,1,0,0,1,0-2H28A1,1,0,0,1,29,28Z" style="fill:#99aab5" /><path d="M14.53,29.53,0,15V32a4,4,0,0,0,4,4H32a4,4,0,0,0,4-4V15L21.41,29.53A4.88,4.88,0,0,1,14.53,29.53Z" style="fill:#b0d8a5" /><path d="M24.77,26.18l1.42-1.41L35.36,34a.47.47,0,0,1,.06.09A4,4,0,0,1,34,35.42s-.07,0-.09-.06ZM.64,34A.47.47,0,0,0,.58,34,4,4,0,0,0,2,35.42l.09-.06,9.15-9.15L9.79,24.8Z" style="fill:#a1cd96" /><path d="M17,11.9A1.11,1.11,0,0,1,15.89,13H8.11A1.12,1.12,0,0,1,7,11.9V4.12A1.11,1.11,0,0,1,8.11,3h7.78A1.11,1.11,0,0,1,17,4.12Z" style="fill:#77b255" /><path d="M10.92,6.1c.14,0,.21.1.21.25s-.07.26-.21.26h-.64V8c.21-.07.41-.15.57-.22l.11,0c.09,0,.15,0,.18.16a.3.3,0,0,1,0,.12.2.2,0,0,1-.14.19,7.8,7.8,0,0,1-.75.3v2.08c0,.52-.21.68-.73.68A2.35,2.35,0,0,1,9,11.28.25.25,0,0,1,8.78,11a.2.2,0,0,1,0-.07.22.22,0,0,1,.21-.2h.08a2.65,2.65,0,0,0,.38.05c.23,0,.28-.05.28-.26V8.75c-.27.08-.52.16-.74.21H8.92a.22.22,0,0,1-.23-.22.3.3,0,0,1,0-.1.2.2,0,0,1,.18-.2c.27-.06.58-.14.89-.24V6.61H8.91c-.13,0-.2-.11-.2-.25s.07-.26.2-.26h.83V4.88c0-.14.09-.22.26-.22s.28.08.28.22V6.1ZM14.3,8c.39,0,.59.16.59.57v2.13c0,.4-.2.57-.59.57H12c-.39,0-.59-.17-.59-.57V8.54c0-.41.2-.57.59-.57ZM12,6.57c0,.27.11.31,1.33.31,1,0,1.19-.06,1.28-.21a1.12,1.12,0,0,0,.12-.44c0-.14.09-.2.23-.2h0a.24.24,0,0,1,.25.22v0a1.41,1.41,0,0,1-.25.78c-.18.23-.42.33-1.68.33-1.61,0-1.87-.08-1.87-.69V4.92c0-.13.11-.21.27-.21s.28.08.28.21v.71A10.43,10.43,0,0,0,14.52,5a.26.26,0,0,1,.37.14.32.32,0,0,1,0,.13.23.23,0,0,1-.16.22A11.31,11.31,0,0,1,12,6.11Zm2.38,2c0-.14-.07-.18-.21-.18h-2c-.14,0-.21,0-.21.18v.71h2.41ZM11.94,9.79v.78c0,.14.07.18.21.18h2c.14,0,.21,0,.21-.18V9.79Z" style="fill:#fff" /></svg>