<svg xmlns="http://www.w3.org/2000/svg" viewBox="0 0 36 36"><path d="M32,10H4a4,4,0,0,0-4,4v1l14.53,14.5a4.88,4.88,0,0,0,6.88,0L36,15V14A4,4,0,0,0,32,10Z" style="fill:#b477b6" /><path d="M32.42,9.59l-9-9A2,2,0,0,0,20,2a2,2,0,0,0,.59,1.41L16.73,7.27l9,9,3.86-3.86A2,2,0,0,0,31,13a2,2,0,0,0,1.42-3.41Z" style="fill:#e1e8ed" /><path d="M22,0H7A4,4,0,0,0,3,4V32a4,4,0,0,0,4,4H29a4,4,0,0,0,4-4V11H24a2.15,2.15,0,0,1-2-2Z" style="fill:#ccd6dd" /><path d="M22,0H20V9a4,4,0,0,0,4,4h9V11H24a2.15,2.15,0,0,1-2-2Z" style="fill:#99aab5" /><path d="M29,16a1,1,0,0,1-1,1H8a1,1,0,0,1,0-2H28A1,1,0,0,1,29,16Z" style="fill:#99aab5" /><path d="M29,20a1,1,0,0,1-1,1H8a1,1,0,0,1,0-2H28A1,1,0,0,1,29,20Z" style="fill:#99aab5" /><path d="M29,24a1,1,0,0,1-1,1H8a1,1,0,0,1,0-2H28A1,1,0,0,1,29,24Z" style="fill:#99aab5" /><path d="M29,28a1,1,0,0,1-1,1H8a1,1,0,0,1,0-2H28A1,1,0,0,1,29,28Z" style="fill:#99aab5" /><path d="M14.53,29.53,0,15V32a4,4,0,0,0,4,4H32a4,4,0,0,0,4-4V15L21.41,29.53A4.88,4.88,0,0,1,14.53,29.53Z" style="fill:#c992cb" /><path d="M24.77,26.18l1.42-1.41L35.36,34a.47.47,0,0,1,.06.09A4,4,0,0,1,34,35.42s-.07,0-.09-.06ZM.64,34A.47.47,0,0,0,.58,34,4,4,0,0,0,2,35.42l.09-.06,9.15-9.15L9.79,24.8Z" style="fill:#bf82c1" /><circle cx="12" cy="8.01" r="5" style="fill:#88c9f9" /><path d="M7.78,10.06c0-.28,0-.33,0-.66s.16-.28.32-.43a1.32,1.32,0,0,1,.38-.35c.26-.17.12-.36.1-.47s-.17,0-.43,0S8,8.08,7.8,8s-.23-.17-.33-.48a1.15,1.15,0,0,1-.09-.66c0-.26.16,0,.18.26s.26.17.26.34.34.37.43.42.33-.26.42-.35a1.24,1.24,0,0,0,.22-.27c0-.07.47-.13.56-.13s.29.26.29.39a2.29,2.29,0,0,0,.2.64c.08.19.27.22.45.36s.26,0,.26,0A2.72,2.72,0,0,1,10.58,8a.75.75,0,0,1,.21-.45s.33.24.34.31.28.32.3.44a.45.45,0,0,0,.41.31c.26,0,.08-.3.16-.52a.43.43,0,0,1,.37-.3.74.74,0,0,0,.38-.31c.1-.14.29-.33.28-.49a2.06,2.06,0,0,0-.14-.45c-.07-.19.21-.26.33-.48s0,0,.28-.07.15-.07.2-.18a.46.46,0,0,0,0-.4c-.05-.19-.24,0-.44,0s.07-.26.09-.46.26-.16.44-.18.22.23.27.28.59-.35.73-.54-.12-.14-.05-.22-.42-.09-.61-.13A2.92,2.92,0,0,1,13.31,4a2.13,2.13,0,0,0-1.12.07.29.29,0,0,1-.4-.14c-.08-.13-.45-.06-.55-.14s-.21.12-.35.18a.31.31,0,0,1-.36,0c-.18-.1.05-.22-.2-.31a2.13,2.13,0,0,0-.66,0,5,5,0,0,0-1.94,7A.94.94,0,0,0,7.78,10.06Zm4-.33c.12,0,.47,0,.19-.22s-.43-.06-.4-.32-.17-.26-.17-.26c0,.19-.14.4,0,.59A.47.47,0,0,0,11.81,9.73Z" style="fill:#5c913b" /><path d="M13.58,6.83c-.27-.22-.07-.15,0-.42s-.18-.26-.18-.26c0,.2-.13.4,0,.59s-.27.35-.15.37S13.86,7.06,13.58,6.83ZM12.5,9.54c.18.19.11,0,.34-.09s-.2-.27-.33-.38-.28-.11-.4.12S12.33,9.35,12.5,9.54Zm2,.35a.6.6,0,0,0-.49-.15c-.21,0-.19-.23-.4-.22s-.36-.14-.45-.18-.07.13,0,.4.33.06.57.2.26,0,.49,0,.31.22.53.21S14.63,10,14.54,9.89Zm-.45.76a1.76,1.76,0,0,0-.45-.42.43.43,0,0,0-.4-.06c-.14.05-.23,0-.3-.14s-.19-.09-.29-.07a5.1,5.1,0,0,0-.77.31,1.88,1.88,0,0,0-.51.38c-.25.25-.11.09,0,.25s-.13.64-.14.92.44-.09.62-.13.12-.13.26-.24.23-.13.38,0,.35.27.35.43.55.41.76.31a2.64,2.64,0,0,0,.52-.49c.19-.17.12-.5.18-.71S14.17,10.83,14.09,10.65Z" style="fill:#5c913b" /></svg>