<svg xmlns="http://www.w3.org/2000/svg" viewBox="0 0 18 18"><path style="fill-rule:evenodd;fill:#2B1600" d="M0.8,6.3v6.8c0,2.3,1.8,4.1,4.1,4.1H9c1.6-0.1,3.1-1.2,3.7-2.7h1.8c1.5,0,2.7-1.2,2.7-2.7v-1.4 c0-1.5-1.2-2.7-2.7-2.7h-1.4V6.3H0.8z M2.2,7.6v5.5c0,1.5,1.2,2.7,2.7,2.7H9c1.5,0,2.7-1.2,2.7-2.7V7.6H2.2z M13.1,9v4.1h1.4 c0.8,0,1.4-0.5,1.4-1.4v-1.4c0-0.8-0.5-1.4-1.4-1.4H13.1z"/><path style="fill:#808080" d="M10.4,7.6v5.5c0,1.5-1.2,2.7-2.7,2.7H9c1.5,0,2.7-1.2,2.7-2.7V7.6H10.4z"/><path style="fill:#DDC57f" d="M6.3,0.8v1.4c-0.8,0-1.4,0.5-1.4,1.4v1.4h1.4V3.5c0.8,0,1.4-0.5,1.4-1.4V0.8H6.3z M9,0.8v1.4 c-0.8,0-1.4,0.5-1.4,1.4v1.4H9V3.5c0.8,0,1.4-0.5,1.4-1.4V0.8H9z"/><path style="fill:#FFFDF5" d="M10.4,13.1V7.6H2.2v5.5c0,1.5,1.2,2.7,2.7,2.7h2.7C9.1,15.8,10.4,14.6,10.4,13.1z"/></svg>